<svg xmlns="http://www.w3.org/2000/svg" width="473.34" height="110.288" viewBox="0 0 473.34 110.288">
  <g id="Group_12" data-name="Group 12" transform="translate(-69.77 -600)">
    <g id="Group_1" data-name="Group 1" transform="translate(-754.774 69.042)">
      <rect id="Rectangle_4" data-name="Rectangle 4" width="31.194" height="31.194" transform="translate(868.659 553.016) rotate(45)" fill="#fff" opacity="0.6"/>
      <path id="Rectangle_11" data-name="Rectangle 11" d="M0,0H31.194V31.194H4a4,4,0,0,1-4-4Z" transform="translate(846.602 575.073) rotate(45)" fill="#fff" opacity="0.8"/>
      <rect id="Rectangle_7" data-name="Rectangle 7" width="31.194" height="31.194" transform="translate(912.774 553.016) rotate(45)" fill="#fff" opacity="0.6"/>
      <rect id="Rectangle_9" data-name="Rectangle 9" width="31.194" height="31.194" transform="translate(890.716 575.073) rotate(45)" fill="#fff" opacity="0.8"/>
      <path id="Rectangle_13" data-name="Rectangle 13" d="M0,0H31.194V27.194a4,4,0,0,1-4,4H0Z" transform="translate(912.774 597.131) rotate(45)" fill="#fff"/>
      <path id="Rectangle_14" data-name="Rectangle 14" d="M0,0H31.194V27.194a4,4,0,0,1-4,4H0Z" transform="translate(868.659 597.131) rotate(45)" fill="#fff"/>
      <path id="Rectangle_15" data-name="Rectangle 15" d="M0,0H31.194V27.194a4,4,0,0,1-4,4H0Z" transform="translate(956.889 597.131) rotate(45)" fill="#fff"/>
      <rect id="Rectangle_10" data-name="Rectangle 10" width="31.194" height="31.194" transform="translate(934.831 575.073) rotate(45)" fill="#fff" opacity="0.8"/>
      <path id="Rectangle_12" data-name="Rectangle 12" d="M0,0H27.194a4,4,0,0,1,4,4V31.194H0Z" transform="translate(978.946 575.073) rotate(45)" fill="#fff" opacity="0.8"/>
      <rect id="Rectangle_8" data-name="Rectangle 8" width="31.194" height="31.194" transform="translate(956.889 553.016) rotate(45)" fill="#fff" opacity="0.6"/>
      <path id="Rectangle_5" data-name="Rectangle 5" d="M3,0H31.194V31.194H0V3A3,3,0,0,1,3,0Z" transform="translate(890.716 530.958) rotate(45)" fill="#fff" opacity="0.4"/>
      <path id="Rectangle_6" data-name="Rectangle 6" d="M3,0H31.194V31.194H0V3A3,3,0,0,1,3,0Z" transform="translate(934.831 530.958) rotate(45)" fill="#fff" opacity="0.4"/>
    </g>
    <path id="Path_232" data-name="Path 232" d="M-108.99,0h12.25L-113.4-49h-14.28L-144.34,0h12.25l2.45-7.7h18.2Zm-17.29-18.2,5.74-17.99,5.74,17.99ZM-68.53-49v17.29c-2.31-2.66-5.74-4.27-10.43-4.27-9.17,0-16.73,8.05-16.73,18.48S-88.13.98-78.96.98c4.69,0,8.12-1.61,10.43-4.27V0h10.5V-49ZM-76.86-8.96c-4.83,0-8.33-3.29-8.33-8.54s3.5-8.54,8.33-8.54,8.33,3.29,8.33,8.54S-72.03-8.96-76.86-8.96Zm65.73-27.02c-4.97,0-8.19,1.82-10.15,4.62a10.415,10.415,0,0,0-9.17-4.62c-4.69,0-7.77,1.82-9.38,4.2V-35h-10.5V0h10.5V-19.74c0-4.13,1.96-6.58,5.46-6.58,3.36,0,5.04,2.24,5.04,5.74V0h10.5V-19.74c0-4.13,1.96-6.58,5.46-6.58,3.36,0,5.04,2.24,5.04,5.74V0H2.17V-21.49C2.17-30.24-3.08-35.98-11.13-35.98Zm25.76-2.1a6.364,6.364,0,0,0,6.3-6.3,6.364,6.364,0,0,0-6.3-6.3,6.364,6.364,0,0,0-6.3,6.3A6.364,6.364,0,0,0,14.63-38.08ZM9.38,0h10.5V-35H9.38ZM48.09-35.98c-4.62,0-8.12,1.68-10.01,4.27V-35H27.58V0h10.5V-19.11c0-4.97,2.66-7.21,6.51-7.21,3.36,0,6.09,2.03,6.09,6.37V0h10.5V-21.49C61.18-30.94,55.16-35.98,48.09-35.98Zm25.55-2.1a6.364,6.364,0,0,0,6.3-6.3,6.364,6.364,0,0,0-6.3-6.3,6.364,6.364,0,0,0-6.3,6.3A6.364,6.364,0,0,0,73.64-38.08ZM68.39,0h10.5V-35H68.39Zm37.45-39.9V-49.98C94.22-50.68,88.83-44.8,88.83-35H84.14v10.08h4.69V0h10.5V-24.92h6.51V-35H99.33C99.33-39.06,101.92-40.25,105.84-39.9Zm27.3,4.9-6.58,21.42L118.79-35H107.24L121.17-1.61c-1.54,4.27-3.85,5.81-8.75,5.81V14c9.8.49,16.03-3.92,19.95-15.05L144.34-35Z" transform="translate(398.77 684.674)" fill="#fff"/>
    <path id="Path_231" data-name="Path 231" d="M470.836-1342.157s18.915,21.645,40.642,0" transform="translate(-47.829 2034.975)" fill="none" stroke="#fff" stroke-width="7"/>
  </g>
</svg>
